<mxfile host="app.diagrams.net" agent="Mozilla/5.0 (Windows NT 10.0; Win64; x64) AppleWebKit/537.36 (KHTML, like Gecko) Chrome/140.0.0.0 Safari/537.36 Edg/140.0.0.0" version="28.2.3">
  <diagram name="Страница — 1" id="1DAxFJJQckaN6bqqb1FT">
    <mxGraphModel dx="1576" dy="1320" grid="0" gridSize="10" guides="1" tooltips="1" connect="1" arrows="1" fold="1" page="0" pageScale="1" pageWidth="827" pageHeight="1169" math="0" shadow="0">
      <root>
        <mxCell id="0" />
        <mxCell id="1" parent="0" />
        <mxCell id="3arE01IcnZPf_Ok6hQVk-8" value="Менеджер" style="shape=umlActor;verticalLabelPosition=bottom;verticalAlign=top;html=1;outlineConnect=0;" vertex="1" parent="1">
          <mxGeometry x="205" y="-40" width="30" height="60" as="geometry" />
        </mxCell>
        <mxCell id="3arE01IcnZPf_Ok6hQVk-9" value="Партнер" style="shape=umlActor;verticalLabelPosition=bottom;verticalAlign=top;html=1;outlineConnect=0;" vertex="1" parent="1">
          <mxGeometry x="485" y="-40" width="30" height="60" as="geometry" />
        </mxCell>
        <mxCell id="3arE01IcnZPf_Ok6hQVk-10" value="Система" style="rounded=1;whiteSpace=wrap;html=1;" vertex="1" parent="1">
          <mxGeometry x="720" y="-30" width="120" height="60" as="geometry" />
        </mxCell>
        <mxCell id="3arE01IcnZPf_Ok6hQVk-11" value="" style="rounded=0;whiteSpace=wrap;html=1;" vertex="1" parent="1">
          <mxGeometry x="210" y="60" width="20" height="650" as="geometry" />
        </mxCell>
        <mxCell id="3arE01IcnZPf_Ok6hQVk-12" value="" style="rounded=0;whiteSpace=wrap;html=1;" vertex="1" parent="1">
          <mxGeometry x="770" y="60" width="20" height="100" as="geometry" />
        </mxCell>
        <mxCell id="3arE01IcnZPf_Ok6hQVk-13" value="" style="edgeStyle=none;orthogonalLoop=1;jettySize=auto;html=1;rounded=0;entryX=0;entryY=0.25;entryDx=0;entryDy=0;exitX=1.004;exitY=0.038;exitDx=0;exitDy=0;exitPerimeter=0;" edge="1" parent="1" source="3arE01IcnZPf_Ok6hQVk-11" target="3arE01IcnZPf_Ok6hQVk-12">
          <mxGeometry width="80" relative="1" as="geometry">
            <mxPoint x="225" y="90" as="sourcePoint" />
            <mxPoint x="760" y="90" as="targetPoint" />
            <Array as="points" />
          </mxGeometry>
        </mxCell>
        <mxCell id="3arE01IcnZPf_Ok6hQVk-14" value="Создание заявки" style="text;strokeColor=none;align=center;fillColor=none;html=1;verticalAlign=middle;whiteSpace=wrap;rounded=0;" vertex="1" parent="1">
          <mxGeometry x="570" y="60" width="120" height="30" as="geometry" />
        </mxCell>
        <mxCell id="3arE01IcnZPf_Ok6hQVk-15" value="" style="edgeStyle=none;orthogonalLoop=1;jettySize=auto;html=1;rounded=0;exitX=0;exitY=0.75;exitDx=0;exitDy=0;dashed=1;" edge="1" parent="1" source="3arE01IcnZPf_Ok6hQVk-12">
          <mxGeometry width="80" relative="1" as="geometry">
            <mxPoint x="500" y="121" as="sourcePoint" />
            <mxPoint x="510" y="135" as="targetPoint" />
            <Array as="points" />
          </mxGeometry>
        </mxCell>
        <mxCell id="3arE01IcnZPf_Ok6hQVk-16" value="Создание заявки в системе" style="text;strokeColor=none;align=center;fillColor=none;html=1;verticalAlign=middle;whiteSpace=wrap;rounded=0;" vertex="1" parent="1">
          <mxGeometry x="550" y="110" width="180" height="30" as="geometry" />
        </mxCell>
        <mxCell id="3arE01IcnZPf_Ok6hQVk-17" value="" style="rounded=0;whiteSpace=wrap;html=1;" vertex="1" parent="1">
          <mxGeometry x="490" y="120" width="20" height="100" as="geometry" />
        </mxCell>
        <mxCell id="3arE01IcnZPf_Ok6hQVk-18" value="" style="edgeStyle=none;orthogonalLoop=1;jettySize=auto;html=1;rounded=0;entryX=1;entryY=0.208;entryDx=0;entryDy=0;exitX=0;exitY=0.75;exitDx=0;exitDy=0;entryPerimeter=0;" edge="1" parent="1" source="3arE01IcnZPf_Ok6hQVk-17" target="3arE01IcnZPf_Ok6hQVk-11">
          <mxGeometry width="80" relative="1" as="geometry">
            <mxPoint x="520" y="130" as="sourcePoint" />
            <mxPoint x="1060" y="130" as="targetPoint" />
            <Array as="points" />
          </mxGeometry>
        </mxCell>
        <mxCell id="3arE01IcnZPf_Ok6hQVk-19" value="Принятие заявки" style="text;strokeColor=none;align=center;fillColor=none;html=1;verticalAlign=middle;whiteSpace=wrap;rounded=0;" vertex="1" parent="1">
          <mxGeometry x="270" y="170" width="180" height="30" as="geometry" />
        </mxCell>
        <mxCell id="3arE01IcnZPf_Ok6hQVk-20" value="" style="rounded=0;whiteSpace=wrap;html=1;" vertex="1" parent="1">
          <mxGeometry x="490" y="240" width="20" height="100" as="geometry" />
        </mxCell>
        <mxCell id="3arE01IcnZPf_Ok6hQVk-21" value="" style="edgeStyle=none;orthogonalLoop=1;jettySize=auto;html=1;rounded=0;entryX=0;entryY=0.25;entryDx=0;entryDy=0;exitX=1.038;exitY=0.314;exitDx=0;exitDy=0;exitPerimeter=0;" edge="1" parent="1" source="3arE01IcnZPf_Ok6hQVk-11" target="3arE01IcnZPf_Ok6hQVk-20">
          <mxGeometry width="80" relative="1" as="geometry">
            <mxPoint x="590" y="250" as="sourcePoint" />
            <mxPoint x="330" y="250" as="targetPoint" />
            <Array as="points" />
          </mxGeometry>
        </mxCell>
        <mxCell id="3arE01IcnZPf_Ok6hQVk-22" value="Согласование данных о товаре" style="text;strokeColor=none;align=center;fillColor=none;html=1;verticalAlign=middle;whiteSpace=wrap;rounded=0;" vertex="1" parent="1">
          <mxGeometry x="270" y="240" width="180" height="30" as="geometry" />
        </mxCell>
        <mxCell id="3arE01IcnZPf_Ok6hQVk-23" value="" style="edgeStyle=none;orthogonalLoop=1;jettySize=auto;html=1;rounded=0;entryX=0.97;entryY=0.393;entryDx=0;entryDy=0;exitX=0;exitY=0.75;exitDx=0;exitDy=0;entryPerimeter=0;" edge="1" parent="1" source="3arE01IcnZPf_Ok6hQVk-20" target="3arE01IcnZPf_Ok6hQVk-11">
          <mxGeometry width="80" relative="1" as="geometry">
            <mxPoint x="720" y="210" as="sourcePoint" />
            <mxPoint x="460" y="210" as="targetPoint" />
            <Array as="points" />
          </mxGeometry>
        </mxCell>
        <mxCell id="3arE01IcnZPf_Ok6hQVk-24" value="Подтверждение" style="text;strokeColor=none;align=center;fillColor=none;html=1;verticalAlign=middle;whiteSpace=wrap;rounded=0;" vertex="1" parent="1">
          <mxGeometry x="270" y="290" width="180" height="30" as="geometry" />
        </mxCell>
        <mxCell id="3arE01IcnZPf_Ok6hQVk-25" value="" style="rounded=0;whiteSpace=wrap;html=1;" vertex="1" parent="1">
          <mxGeometry x="770" y="360" width="20" height="100" as="geometry" />
        </mxCell>
        <mxCell id="3arE01IcnZPf_Ok6hQVk-26" value="" style="edgeStyle=none;orthogonalLoop=1;jettySize=auto;html=1;rounded=0;entryX=0;entryY=0.25;entryDx=0;entryDy=0;exitX=1;exitY=0.5;exitDx=0;exitDy=0;" edge="1" parent="1" source="3arE01IcnZPf_Ok6hQVk-11" target="3arE01IcnZPf_Ok6hQVk-25">
          <mxGeometry width="80" relative="1" as="geometry">
            <mxPoint x="240" y="390" as="sourcePoint" />
            <mxPoint x="950" y="390" as="targetPoint" />
            <Array as="points" />
          </mxGeometry>
        </mxCell>
        <mxCell id="3arE01IcnZPf_Ok6hQVk-27" value="Создание записи о покупке партии товара определенным партнером" style="text;strokeColor=none;align=center;fillColor=none;html=1;verticalAlign=middle;whiteSpace=wrap;rounded=0;" vertex="1" parent="1">
          <mxGeometry x="330" y="360" width="430" height="30" as="geometry" />
        </mxCell>
        <mxCell id="3arE01IcnZPf_Ok6hQVk-28" value="" style="edgeStyle=none;orthogonalLoop=1;jettySize=auto;html=1;rounded=0;exitX=0;exitY=0.75;exitDx=0;exitDy=0;dashed=1;entryX=1.072;entryY=0.577;entryDx=0;entryDy=0;entryPerimeter=0;" edge="1" parent="1" source="3arE01IcnZPf_Ok6hQVk-25" target="3arE01IcnZPf_Ok6hQVk-11">
          <mxGeometry width="80" relative="1" as="geometry">
            <mxPoint x="750" y="420" as="sourcePoint" />
            <mxPoint x="490" y="420" as="targetPoint" />
            <Array as="points" />
          </mxGeometry>
        </mxCell>
        <mxCell id="3arE01IcnZPf_Ok6hQVk-29" value="Информация из записи" style="text;strokeColor=none;align=center;fillColor=none;html=1;verticalAlign=middle;whiteSpace=wrap;rounded=0;" vertex="1" parent="1">
          <mxGeometry x="330" y="410" width="430" height="30" as="geometry" />
        </mxCell>
        <mxCell id="3arE01IcnZPf_Ok6hQVk-30" value="" style="rounded=0;whiteSpace=wrap;html=1;" vertex="1" parent="1">
          <mxGeometry x="490" y="470" width="20" height="100" as="geometry" />
        </mxCell>
        <mxCell id="3arE01IcnZPf_Ok6hQVk-31" value="" style="edgeStyle=none;orthogonalLoop=1;jettySize=auto;html=1;rounded=0;entryX=0;entryY=0.25;entryDx=0;entryDy=0;exitX=1.01;exitY=0.67;exitDx=0;exitDy=0;exitPerimeter=0;" edge="1" parent="1" source="3arE01IcnZPf_Ok6hQVk-11" target="3arE01IcnZPf_Ok6hQVk-30">
          <mxGeometry width="80" relative="1" as="geometry">
            <mxPoint x="290" y="490" as="sourcePoint" />
            <mxPoint x="549" y="491" as="targetPoint" />
            <Array as="points" />
          </mxGeometry>
        </mxCell>
        <mxCell id="3arE01IcnZPf_Ok6hQVk-32" value="Покупка партии товара" style="text;strokeColor=none;align=center;fillColor=none;html=1;verticalAlign=middle;whiteSpace=wrap;rounded=0;" vertex="1" parent="1">
          <mxGeometry x="270" y="470" width="180" height="30" as="geometry" />
        </mxCell>
        <mxCell id="3arE01IcnZPf_Ok6hQVk-33" value="" style="edgeStyle=none;orthogonalLoop=1;jettySize=auto;html=1;rounded=0;entryX=0.977;entryY=0.746;entryDx=0;entryDy=0;exitX=0;exitY=0.75;exitDx=0;exitDy=0;entryPerimeter=0;" edge="1" parent="1" source="3arE01IcnZPf_Ok6hQVk-30" target="3arE01IcnZPf_Ok6hQVk-11">
          <mxGeometry width="80" relative="1" as="geometry">
            <mxPoint x="581" y="550" as="sourcePoint" />
            <mxPoint x="320" y="550" as="targetPoint" />
            <Array as="points" />
          </mxGeometry>
        </mxCell>
        <mxCell id="3arE01IcnZPf_Ok6hQVk-34" value="Оплата" style="text;strokeColor=none;align=center;fillColor=none;html=1;verticalAlign=middle;whiteSpace=wrap;rounded=0;" vertex="1" parent="1">
          <mxGeometry x="270" y="520" width="180" height="30" as="geometry" />
        </mxCell>
        <mxCell id="3arE01IcnZPf_Ok6hQVk-39" value="" style="group" vertex="1" connectable="0" parent="1">
          <mxGeometry x="660" y="620" width="280" height="220" as="geometry" />
        </mxCell>
        <mxCell id="3arE01IcnZPf_Ok6hQVk-35" value="" style="rounded=0;whiteSpace=wrap;html=1;container=0;" vertex="1" parent="3arE01IcnZPf_Ok6hQVk-39">
          <mxGeometry width="280" height="180" as="geometry" />
        </mxCell>
        <mxCell id="3arE01IcnZPf_Ok6hQVk-36" value="" style="shape=card;whiteSpace=wrap;html=1;flipH=1;rotation=90;size=10;container=0;" vertex="1" parent="3arE01IcnZPf_Ok6hQVk-39">
          <mxGeometry x="10" y="-10" width="40" height="60" as="geometry" />
        </mxCell>
        <mxCell id="3arE01IcnZPf_Ok6hQVk-37" value="Alt" style="text;strokeColor=none;align=center;fillColor=none;html=1;verticalAlign=middle;whiteSpace=wrap;rounded=0;container=0;" vertex="1" parent="3arE01IcnZPf_Ok6hQVk-39">
          <mxGeometry x="10" y="5" width="40" height="30" as="geometry" />
        </mxCell>
        <mxCell id="3arE01IcnZPf_Ok6hQVk-41" value="" style="rounded=0;whiteSpace=wrap;html=1;" vertex="1" parent="3arE01IcnZPf_Ok6hQVk-39">
          <mxGeometry x="110" y="-40" width="20" height="260" as="geometry" />
        </mxCell>
        <mxCell id="3arE01IcnZPf_Ok6hQVk-40" value="" style="edgeStyle=none;orthogonalLoop=1;jettySize=auto;html=1;rounded=0;dashed=1;entryX=1.072;entryY=0.577;entryDx=0;entryDy=0;entryPerimeter=0;endArrow=none;endFill=0;" edge="1" parent="3arE01IcnZPf_Ok6hQVk-39">
          <mxGeometry width="80" relative="1" as="geometry">
            <mxPoint x="280" y="89.67999999999995" as="sourcePoint" />
            <mxPoint y="89.67999999999995" as="targetPoint" />
            <Array as="points" />
          </mxGeometry>
        </mxCell>
        <mxCell id="3arE01IcnZPf_Ok6hQVk-42" value="Оплата прошла" style="text;strokeColor=none;align=center;fillColor=none;html=1;verticalAlign=middle;whiteSpace=wrap;rounded=0;" vertex="1" parent="3arE01IcnZPf_Ok6hQVk-39">
          <mxGeometry y="50" width="80" height="30" as="geometry" />
        </mxCell>
        <mxCell id="3arE01IcnZPf_Ok6hQVk-43" value="Оплата не прошла" style="text;strokeColor=none;align=center;fillColor=none;html=1;verticalAlign=middle;whiteSpace=wrap;rounded=0;" vertex="1" parent="3arE01IcnZPf_Ok6hQVk-39">
          <mxGeometry y="100" width="80" height="30" as="geometry" />
        </mxCell>
        <mxCell id="3arE01IcnZPf_Ok6hQVk-44" value="" style="edgeStyle=none;orthogonalLoop=1;jettySize=auto;html=1;rounded=0;exitX=1.003;exitY=0.221;exitDx=0;exitDy=0;exitPerimeter=0;" edge="1" parent="3arE01IcnZPf_Ok6hQVk-39" source="3arE01IcnZPf_Ok6hQVk-41">
          <mxGeometry width="80" relative="1" as="geometry">
            <mxPoint x="60" y="60" as="sourcePoint" />
            <mxPoint x="130" y="60" as="targetPoint" />
            <Array as="points">
              <mxPoint x="160" y="17" />
              <mxPoint x="160" y="60" />
            </Array>
          </mxGeometry>
        </mxCell>
        <mxCell id="3arE01IcnZPf_Ok6hQVk-45" value="Одобрено" style="text;strokeColor=none;align=center;fillColor=none;html=1;verticalAlign=middle;whiteSpace=wrap;rounded=0;" vertex="1" parent="3arE01IcnZPf_Ok6hQVk-39">
          <mxGeometry x="160" y="20" width="60" height="30" as="geometry" />
        </mxCell>
        <mxCell id="3arE01IcnZPf_Ok6hQVk-47" value="Отказано" style="text;strokeColor=none;align=center;fillColor=none;html=1;verticalAlign=middle;whiteSpace=wrap;rounded=0;" vertex="1" parent="3arE01IcnZPf_Ok6hQVk-39">
          <mxGeometry x="150" y="110" width="80" height="30" as="geometry" />
        </mxCell>
        <mxCell id="3arE01IcnZPf_Ok6hQVk-49" value="" style="edgeStyle=none;orthogonalLoop=1;jettySize=auto;html=1;rounded=0;exitX=1.008;exitY=0.13;exitDx=0;exitDy=0;exitPerimeter=0;entryX=1.013;entryY=0.744;entryDx=0;entryDy=0;entryPerimeter=0;" edge="1" parent="3arE01IcnZPf_Ok6hQVk-39" target="3arE01IcnZPf_Ok6hQVk-41">
          <mxGeometry width="80" relative="1" as="geometry">
            <mxPoint x="130" y="110" as="sourcePoint" />
            <mxPoint x="130" y="154" as="targetPoint" />
            <Array as="points">
              <mxPoint x="160" y="110" />
              <mxPoint x="160" y="153" />
            </Array>
          </mxGeometry>
        </mxCell>
        <mxCell id="3arE01IcnZPf_Ok6hQVk-52" value="" style="edgeStyle=none;orthogonalLoop=1;jettySize=auto;html=1;rounded=0;entryX=0;entryY=0.25;entryDx=0;entryDy=0;exitX=1;exitY=0.5;exitDx=0;exitDy=0;" edge="1" parent="1">
          <mxGeometry width="80" relative="1" as="geometry">
            <mxPoint x="230" y="600" as="sourcePoint" />
            <mxPoint x="770" y="600" as="targetPoint" />
            <Array as="points" />
          </mxGeometry>
        </mxCell>
        <mxCell id="3arE01IcnZPf_Ok6hQVk-53" value="Проверка оплаты" style="text;strokeColor=none;align=center;fillColor=none;html=1;verticalAlign=middle;whiteSpace=wrap;rounded=0;" vertex="1" parent="1">
          <mxGeometry x="485" y="570" width="185" height="30" as="geometry" />
        </mxCell>
        <mxCell id="3arE01IcnZPf_Ok6hQVk-55" value="" style="rounded=0;whiteSpace=wrap;html=1;" vertex="1" parent="1">
          <mxGeometry x="210" y="800" width="20" height="100" as="geometry" />
        </mxCell>
        <mxCell id="3arE01IcnZPf_Ok6hQVk-56" value="" style="edgeStyle=none;orthogonalLoop=1;jettySize=auto;html=1;rounded=0;exitX=0;exitY=0.75;exitDx=0;exitDy=0;dashed=1;entryX=1.05;entryY=0.197;entryDx=0;entryDy=0;entryPerimeter=0;" edge="1" parent="1" target="3arE01IcnZPf_Ok6hQVk-66">
          <mxGeometry width="80" relative="1" as="geometry">
            <mxPoint x="769" y="820" as="sourcePoint" />
            <mxPoint x="230" y="820" as="targetPoint" />
            <Array as="points" />
          </mxGeometry>
        </mxCell>
        <mxCell id="3arE01IcnZPf_Ok6hQVk-57" value="" style="edgeStyle=none;orthogonalLoop=1;jettySize=auto;html=1;rounded=0;exitX=0.5;exitY=0;exitDx=0;exitDy=0;dashed=1;entryX=0.5;entryY=1;entryDx=0;entryDy=0;endArrow=none;endFill=0;" edge="1" parent="1" source="3arE01IcnZPf_Ok6hQVk-55" target="3arE01IcnZPf_Ok6hQVk-11">
          <mxGeometry width="80" relative="1" as="geometry">
            <mxPoint x="859" y="710" as="sourcePoint" />
            <mxPoint x="320" y="710" as="targetPoint" />
            <Array as="points" />
          </mxGeometry>
        </mxCell>
        <mxCell id="3arE01IcnZPf_Ok6hQVk-58" value="Уведомление о результате" style="text;strokeColor=none;align=center;fillColor=none;html=1;verticalAlign=middle;whiteSpace=wrap;rounded=0;" vertex="1" parent="1">
          <mxGeometry x="537.5" y="820" width="185" height="30" as="geometry" />
        </mxCell>
        <mxCell id="3arE01IcnZPf_Ok6hQVk-59" value="" style="edgeStyle=none;orthogonalLoop=1;jettySize=auto;html=1;rounded=0;exitX=0.5;exitY=0;exitDx=0;exitDy=0;dashed=1;endArrow=none;endFill=0;" edge="1" parent="1" source="3arE01IcnZPf_Ok6hQVk-17">
          <mxGeometry width="80" relative="1" as="geometry">
            <mxPoint x="490" y="150" as="sourcePoint" />
            <mxPoint x="500" y="40" as="targetPoint" />
            <Array as="points" />
          </mxGeometry>
        </mxCell>
        <mxCell id="3arE01IcnZPf_Ok6hQVk-60" value="" style="edgeStyle=none;orthogonalLoop=1;jettySize=auto;html=1;rounded=0;exitX=0.5;exitY=0;exitDx=0;exitDy=0;dashed=1;endArrow=none;endFill=0;" edge="1" parent="1" source="3arE01IcnZPf_Ok6hQVk-11">
          <mxGeometry width="80" relative="1" as="geometry">
            <mxPoint x="290" y="140" as="sourcePoint" />
            <mxPoint x="220" y="40" as="targetPoint" />
            <Array as="points" />
          </mxGeometry>
        </mxCell>
        <mxCell id="3arE01IcnZPf_Ok6hQVk-61" value="" style="edgeStyle=none;orthogonalLoop=1;jettySize=auto;html=1;rounded=0;exitX=0.5;exitY=0;exitDx=0;exitDy=0;dashed=1;endArrow=none;endFill=0;entryX=0.5;entryY=1;entryDx=0;entryDy=0;" edge="1" parent="1" source="3arE01IcnZPf_Ok6hQVk-12" target="3arE01IcnZPf_Ok6hQVk-10">
          <mxGeometry width="80" relative="1" as="geometry">
            <mxPoint x="770" y="60" as="sourcePoint" />
            <mxPoint x="770" y="40" as="targetPoint" />
            <Array as="points" />
          </mxGeometry>
        </mxCell>
        <mxCell id="3arE01IcnZPf_Ok6hQVk-63" value="Менеджер" style="shape=umlActor;verticalLabelPosition=bottom;verticalAlign=top;html=1;outlineConnect=0;" vertex="1" parent="1">
          <mxGeometry x="205" y="940" width="30" height="60" as="geometry" />
        </mxCell>
        <mxCell id="3arE01IcnZPf_Ok6hQVk-64" value="Партнер" style="shape=umlActor;verticalLabelPosition=bottom;verticalAlign=top;html=1;outlineConnect=0;" vertex="1" parent="1">
          <mxGeometry x="485" y="940" width="30" height="60" as="geometry" />
        </mxCell>
        <mxCell id="3arE01IcnZPf_Ok6hQVk-65" value="Система" style="rounded=1;whiteSpace=wrap;html=1;" vertex="1" parent="1">
          <mxGeometry x="720" y="950" width="120" height="60" as="geometry" />
        </mxCell>
        <mxCell id="3arE01IcnZPf_Ok6hQVk-66" value="" style="rounded=0;whiteSpace=wrap;html=1;" vertex="1" parent="1">
          <mxGeometry x="490" y="800" width="20" height="100" as="geometry" />
        </mxCell>
        <mxCell id="3arE01IcnZPf_Ok6hQVk-67" value="" style="edgeStyle=none;orthogonalLoop=1;jettySize=auto;html=1;rounded=0;exitX=-0.016;exitY=0.199;exitDx=0;exitDy=0;dashed=1;entryX=1.05;entryY=0.197;entryDx=0;entryDy=0;entryPerimeter=0;exitPerimeter=0;" edge="1" parent="1" source="3arE01IcnZPf_Ok6hQVk-66">
          <mxGeometry width="80" relative="1" as="geometry">
            <mxPoint x="488" y="820" as="sourcePoint" />
            <mxPoint x="230" y="820" as="targetPoint" />
            <Array as="points" />
          </mxGeometry>
        </mxCell>
        <mxCell id="3arE01IcnZPf_Ok6hQVk-68" value="Уведомление о результате" style="text;strokeColor=none;align=center;fillColor=none;html=1;verticalAlign=middle;whiteSpace=wrap;rounded=0;" vertex="1" parent="1">
          <mxGeometry x="280" y="820" width="185" height="30" as="geometry" />
        </mxCell>
        <mxCell id="3arE01IcnZPf_Ok6hQVk-69" value="" style="edgeStyle=none;orthogonalLoop=1;jettySize=auto;html=1;rounded=0;dashed=1;entryX=0.5;entryY=1;entryDx=0;entryDy=0;endArrow=none;endFill=0;" edge="1" parent="1" target="3arE01IcnZPf_Ok6hQVk-55">
          <mxGeometry width="80" relative="1" as="geometry">
            <mxPoint x="220" y="930" as="sourcePoint" />
            <mxPoint x="240" y="920" as="targetPoint" />
            <Array as="points" />
          </mxGeometry>
        </mxCell>
        <mxCell id="3arE01IcnZPf_Ok6hQVk-70" value="" style="edgeStyle=none;orthogonalLoop=1;jettySize=auto;html=1;rounded=0;dashed=1;entryX=0.5;entryY=1;entryDx=0;entryDy=0;endArrow=none;endFill=0;" edge="1" parent="1" target="3arE01IcnZPf_Ok6hQVk-66">
          <mxGeometry width="80" relative="1" as="geometry">
            <mxPoint x="500" y="930" as="sourcePoint" />
            <mxPoint x="490" y="920" as="targetPoint" />
            <Array as="points" />
          </mxGeometry>
        </mxCell>
        <mxCell id="3arE01IcnZPf_Ok6hQVk-71" value="" style="edgeStyle=none;orthogonalLoop=1;jettySize=auto;html=1;rounded=0;dashed=1;entryX=0.5;entryY=1;entryDx=0;entryDy=0;endArrow=none;endFill=0;exitX=0.5;exitY=0;exitDx=0;exitDy=0;" edge="1" parent="1" source="3arE01IcnZPf_Ok6hQVk-65" target="3arE01IcnZPf_Ok6hQVk-41">
          <mxGeometry width="80" relative="1" as="geometry">
            <mxPoint x="770" y="930" as="sourcePoint" />
            <mxPoint x="770" y="900" as="targetPoint" />
            <Array as="points" />
          </mxGeometry>
        </mxCell>
        <mxCell id="3arE01IcnZPf_Ok6hQVk-72" value="" style="edgeStyle=none;orthogonalLoop=1;jettySize=auto;html=1;rounded=0;exitX=0.5;exitY=0;exitDx=0;exitDy=0;dashed=1;entryX=0.5;entryY=1;entryDx=0;entryDy=0;endArrow=none;endFill=0;" edge="1" parent="1" source="3arE01IcnZPf_Ok6hQVk-30" target="3arE01IcnZPf_Ok6hQVk-20">
          <mxGeometry width="80" relative="1" as="geometry">
            <mxPoint x="560" y="580" as="sourcePoint" />
            <mxPoint x="560" y="490" as="targetPoint" />
            <Array as="points" />
          </mxGeometry>
        </mxCell>
        <mxCell id="3arE01IcnZPf_Ok6hQVk-73" value="" style="edgeStyle=none;orthogonalLoop=1;jettySize=auto;html=1;rounded=0;exitX=0.5;exitY=0;exitDx=0;exitDy=0;dashed=1;entryX=0.5;entryY=1;entryDx=0;entryDy=0;endArrow=none;endFill=0;" edge="1" parent="1" source="3arE01IcnZPf_Ok6hQVk-25" target="3arE01IcnZPf_Ok6hQVk-12">
          <mxGeometry width="80" relative="1" as="geometry">
            <mxPoint x="780" y="360" as="sourcePoint" />
            <mxPoint x="780" y="270" as="targetPoint" />
            <Array as="points" />
          </mxGeometry>
        </mxCell>
        <mxCell id="3arE01IcnZPf_Ok6hQVk-74" value="" style="edgeStyle=none;orthogonalLoop=1;jettySize=auto;html=1;rounded=0;exitX=0.5;exitY=0;exitDx=0;exitDy=0;dashed=1;entryX=0.5;entryY=1;entryDx=0;entryDy=0;endArrow=none;endFill=0;" edge="1" parent="1" source="3arE01IcnZPf_Ok6hQVk-20" target="3arE01IcnZPf_Ok6hQVk-17">
          <mxGeometry width="80" relative="1" as="geometry">
            <mxPoint x="520" y="320" as="sourcePoint" />
            <mxPoint x="520" y="230" as="targetPoint" />
            <Array as="points" />
          </mxGeometry>
        </mxCell>
        <mxCell id="3arE01IcnZPf_Ok6hQVk-75" value="" style="edgeStyle=none;orthogonalLoop=1;jettySize=auto;html=1;rounded=0;exitX=0.5;exitY=0;exitDx=0;exitDy=0;dashed=1;entryX=0.5;entryY=1;entryDx=0;entryDy=0;endArrow=none;endFill=0;" edge="1" parent="1" source="3arE01IcnZPf_Ok6hQVk-41" target="3arE01IcnZPf_Ok6hQVk-25">
          <mxGeometry width="80" relative="1" as="geometry">
            <mxPoint x="780" y="610" as="sourcePoint" />
            <mxPoint x="780" y="520" as="targetPoint" />
            <Array as="points" />
          </mxGeometry>
        </mxCell>
        <mxCell id="3arE01IcnZPf_Ok6hQVk-76" value="" style="edgeStyle=none;orthogonalLoop=1;jettySize=auto;html=1;rounded=0;exitX=0.5;exitY=0;exitDx=0;exitDy=0;dashed=1;entryX=0.5;entryY=1;entryDx=0;entryDy=0;endArrow=none;endFill=0;" edge="1" parent="1" source="3arE01IcnZPf_Ok6hQVk-66" target="3arE01IcnZPf_Ok6hQVk-30">
          <mxGeometry width="80" relative="1" as="geometry">
            <mxPoint x="510" y="800" as="sourcePoint" />
            <mxPoint x="510" y="710" as="targetPoint" />
            <Array as="points" />
          </mxGeometry>
        </mxCell>
      </root>
    </mxGraphModel>
  </diagram>
</mxfile>
